<svg width="150" height="150" viewBox="0 0 150 150" fill="none" xmlns="http://www.w3.org/2000/svg">
<path fill-rule="evenodd" clip-rule="evenodd" d="M28.8865 42.6364C22.6642 42.6364 17.6201 47.7118 17.6201 53.9727V113.027C17.6201 119.288 22.6642 124.364 28.8865 124.364H121.114C127.336 124.364 132.38 119.288 132.38 113.027V53.9727C132.38 47.7118 127.336 42.6364 121.114 42.6364H28.8865ZM15 53.9727C15 46.2558 21.2172 40 28.8865 40H121.114C128.783 40 135 46.2558 135 53.9727V113.027C135 120.744 128.783 127 121.114 127H28.8865C21.2172 127 15 120.744 15 113.027V53.9727Z" fill="black"/>
<path fill-rule="evenodd" clip-rule="evenodd" d="M54.0393 25.6606C52.1631 25.6606 50.3637 26.4174 49.0371 27.7645C47.7104 29.1117 46.9651 30.9389 46.9651 32.844V40.0275H103.035V32.844C103.035 30.9389 102.29 29.1117 100.963 27.7645C99.6363 26.4174 97.8369 25.6606 95.9607 25.6606H54.0393ZM47.1844 25.8833C49.0024 24.0371 51.4682 23 54.0393 23H95.9607C98.5318 23 100.998 24.0371 102.816 25.8833C104.634 27.7294 105.655 30.2332 105.655 32.844V41.3578C105.655 42.0925 105.068 42.6881 104.345 42.6881H45.655C44.9315 42.6881 44.345 42.0925 44.345 41.3578V32.844C44.345 30.2332 45.3663 27.7294 47.1844 25.8833ZM15 71.156C15 70.4213 15.5865 69.8257 16.31 69.8257H133.69C134.413 69.8257 135 70.4213 135 71.156C135 71.8907 134.413 72.4862 133.69 72.4862H93.0786V77.5413C93.0786 78.4586 92.7197 79.3383 92.081 79.987C91.4422 80.6356 90.5758 81 89.6725 81H60.3275C59.4242 81 58.5578 80.6356 57.919 79.987C57.2803 79.3383 56.9214 78.4586 56.9214 77.5413V72.4862H16.31C15.5865 72.4862 15 71.8907 15 71.156ZM59.5415 72.4862V77.5413C59.5415 77.753 59.6243 77.956 59.7717 78.1057C59.9191 78.2554 60.119 78.3395 60.3275 78.3395H89.6725C89.881 78.3395 90.0809 78.2554 90.2283 78.1057C90.3757 77.956 90.4585 77.753 90.4585 77.5413V72.4862H59.5415Z" fill="black"/>
</svg>
