<svg width="150" height="150" viewBox="0 0 150 150" fill="none" xmlns="http://www.w3.org/2000/svg">
<path fill-rule="evenodd" clip-rule="evenodd" d="M60.3248 23.3498C60.3248 22.6043 60.9308 22 61.6783 22H79.7476C82.4031 22.0004 84.9499 23.0524 86.8278 24.9247L125.067 63.0584C126.945 64.9311 128 67.4708 128 70.1189V122.692C128 126.487 126.488 130.126 123.798 132.809C121.107 135.493 117.458 137 113.653 137H57.3471C53.542 137 49.8928 135.493 47.2022 132.809C44.5116 130.126 43 126.487 43 122.692V88.1385C43 87.393 43.606 86.7887 44.3535 86.7887C45.101 86.7887 45.707 87.393 45.707 88.1385V122.692C45.707 125.771 46.9334 128.724 49.1163 130.901C51.2993 133.077 54.26 134.3 57.3471 134.3H113.653C116.74 134.3 119.701 133.077 121.884 130.901C124.067 128.724 125.293 125.771 125.293 122.692V70.1193C125.293 70.1193 125.293 70.1194 125.293 70.1193C125.293 68.187 124.523 66.3336 123.153 64.9671L84.9139 26.8338C84.9139 26.8337 84.9139 26.8338 84.9139 26.8338C83.5436 25.4676 81.6853 24.6999 79.7476 24.6995C79.7475 24.6995 79.7477 24.6995 79.7476 24.6995H61.6783C60.9308 24.6995 60.3248 24.0952 60.3248 23.3498Z" fill="black"/>
<path fill-rule="evenodd" clip-rule="evenodd" d="M83.358 24C84.108 24 84.716 24.608 84.716 25.358V57.9506C84.716 59.8955 85.4887 61.7608 86.8639 63.1361C88.2392 64.5113 90.1045 65.2839 92.0494 65.2839H124.642C125.392 65.2839 126 65.892 126 66.642C126 67.392 125.392 68 124.642 68H92.0494C89.3841 68 86.828 66.9412 84.9434 65.0566C83.0588 63.172 82 60.6159 82 57.9506V25.358C82 24.608 82.608 24 83.358 24Z" fill="black"/>
<path fill-rule="evenodd" clip-rule="evenodd" d="M40.405 19.6394C38.4852 22.0897 37.4416 25.5446 37.4416 29.4397V68.2482C37.4416 71.4153 39.9329 73.3688 42.5 73.3688H42.5088L42.5175 73.3689C43.182 73.3778 43.8414 73.2518 44.457 72.9985C45.0725 72.7452 45.6317 72.3697 46.1016 71.894C46.5714 71.4184 46.9424 70.8523 47.1927 70.2292C47.4429 69.6061 47.5673 68.9386 47.5586 68.266L47.5584 68.2571V27.2837C47.5584 26.5395 48.1544 25.9362 48.8896 25.9362C49.6248 25.9362 50.2208 26.5395 50.2208 27.2837V68.2398C50.2329 69.2691 50.042 70.2905 49.659 71.2441C49.2749 72.2007 48.7054 73.0696 47.9841 73.7997C47.2629 74.5298 46.4045 75.1063 45.4596 75.4951C44.5173 75.8829 43.5081 76.0762 42.4911 76.0638C38.6714 76.0592 34.7792 73.1086 34.7792 68.2482V29.4397C34.7792 25.0907 35.9413 20.9996 38.3192 17.9647C40.7248 14.8944 44.3064 13 48.8896 13C53.4611 13 57.043 14.8438 59.4539 17.8744C61.8374 20.8705 63 24.9242 63 29.2726V66.6662C63 78.8403 55.1451 89 42.5 89C29.855 89 22 78.8431 22 66.6662V44.5319C22 43.7877 22.596 43.1844 23.3312 43.1844C24.0664 43.1844 24.6623 43.7877 24.6623 44.5319V66.6662C24.6623 77.6721 31.6205 86.305 42.5 86.305C53.3794 86.305 60.3377 77.6695 60.3377 66.6662V29.2726C60.3377 25.3796 59.2945 21.9708 57.3803 19.5647C55.4936 17.1931 52.6858 15.695 48.8896 15.695C45.1051 15.695 42.297 17.2247 40.405 19.6394Z" fill="black"/>
</svg>
