<svg width="67" height="68" viewBox="0 0 67 68" fill="none" xmlns="http://www.w3.org/2000/svg">
<path d="M65.8079 41.945C65.8079 41.945 65.834 41.771 65.8514 41.4839C65.8688 41.1967 65.8862 40.7965 65.8862 40.3353C65.8775 39.8742 65.8253 39.3608 65.747 38.8474C65.6687 38.3427 65.5121 37.8293 65.3293 37.3856C65.0944 36.8374 64.7986 36.4632 64.5114 36.2196C64.2243 35.9673 63.9371 35.8454 63.6761 35.7758C63.1627 35.654 62.7886 35.7758 62.7886 35.7758C62.7886 35.7758 62.8147 35.9412 62.8669 36.1935C62.9191 36.4545 62.9713 36.8026 63.0409 37.1767C63.1018 37.5596 63.1888 37.9686 63.2497 38.334C63.3194 38.6995 63.3889 39.0301 63.476 39.2477C63.6587 39.6827 64.233 40.3266 64.7725 40.8922C65.0422 41.1793 65.3032 41.4317 65.4947 41.6231C65.6861 41.8232 65.8079 41.945 65.8079 41.945Z" fill="#F0BC36"/>
<path d="M60.1173 41.2315C60.2826 41.0923 60.4914 40.8573 60.709 40.5615C60.9091 40.2743 61.1179 39.935 61.3094 39.6218C61.5008 39.3085 61.6487 38.9953 61.7618 38.769C61.8749 38.5428 61.9359 38.3949 61.9359 38.3949C61.9359 38.3949 61.6052 38.186 61.0744 38.186C60.5437 38.1773 59.8475 38.3862 59.0731 39.0823C58.7599 39.3607 58.4815 39.6914 58.2204 40.0133C57.9507 40.3353 57.7157 40.6659 57.5243 40.9618C57.1153 41.5448 56.8717 41.9972 56.8717 41.9972C56.8717 41.9972 57.5069 41.9624 58.2378 41.8493C58.6033 41.7884 58.9948 41.7014 59.3342 41.6057C59.6648 41.5012 59.9433 41.3707 60.1173 41.2315Z" fill="#F0BC36"/>
<path d="M62.049 41.1271C62.049 41.1271 62.049 41.2924 62.0403 41.5448C62.0403 41.8058 62.0403 42.1626 62.0403 42.5541C62.0229 42.937 62.0229 43.3547 62.0316 43.7375C62.0403 44.1204 62.0403 44.451 62.0838 44.686C62.1273 44.9122 62.2578 45.208 62.4406 45.5213L64.2417 46.2696C64.3113 45.8084 64.381 45.2776 64.3984 44.7469C64.3984 44.2074 64.3635 43.6679 64.2591 43.1806C63.972 41.9973 63.4064 41.5013 62.9278 41.2838C62.4406 41.0749 62.049 41.1271 62.049 41.1271Z" fill="#F0BC36"/>
<path d="M57.8898 43.6417L59.9868 44.5118C60.3957 43.9985 60.7177 43.5547 60.7177 43.5547C60.7177 43.5547 60.4392 43.3023 59.9433 43.1979C59.456 43.0935 58.7338 43.137 57.8898 43.6417Z" fill="#F0BC36"/>
<path d="M66.7564 33.5396H64.8073C65.2336 33.8876 65.7818 34.2617 66.2256 34.5489C66.6693 34.8447 67 35.0449 67 35.0449C67 35.0449 66.9304 34.3923 66.7564 33.5396Z" fill="#F0BC36"/>
<path d="M58.2551 36.9765C58.2551 36.9765 58.8729 36.8112 59.569 36.5415C60.2738 36.2717 61.0047 35.8889 61.2832 35.5408C61.5964 35.1667 61.9184 34.2879 62.1707 33.5396H59.8997L59.8214 33.644C59.569 33.9833 59.3515 34.3662 59.1775 34.7403C58.9948 35.1145 58.8207 35.4886 58.6902 35.828C58.5684 36.1673 58.4466 36.4458 58.377 36.6546C58.2899 36.8547 58.2551 36.9765 58.2551 36.9765Z" fill="#F0BC36"/>
<path d="M60.1347 53.6741C60.1347 53.6741 60.2304 53.5262 60.3522 53.2651C60.474 53.0041 60.648 52.6386 60.8221 52.221C61.1527 51.3683 61.466 50.2545 61.4312 49.2886C61.4312 48.6969 61.3006 48.2358 61.1266 47.8964C60.9526 47.5571 60.7351 47.3221 60.5262 47.1655C60.1086 46.8523 59.7083 46.8262 59.7083 46.8262C59.7083 46.8262 59.6735 46.9828 59.6213 47.2351C59.5952 47.3657 59.5604 47.5136 59.5256 47.6876C59.4908 47.8529 59.4473 48.027 59.4037 48.2184C59.308 48.5925 59.2384 49.0102 59.1514 49.367C59.0644 49.7324 59.0122 50.063 59.0122 50.298C59.0122 50.7679 59.2906 51.5858 59.5778 52.3167C59.717 52.6821 59.8562 53.0215 59.9693 53.2738C60.065 53.5175 60.1347 53.6741 60.1347 53.6741Z" fill="#F0BC36"/>
<path d="M55.1488 50.8377C55.3576 50.7681 55.636 50.6288 55.9406 50.4461C56.2451 50.2634 56.5584 50.0285 56.8542 49.8022C57.1587 49.576 57.4111 49.3497 57.6025 49.1844C57.7939 49.0104 57.907 48.906 57.907 48.906C57.907 48.906 57.6808 48.5927 57.1935 48.3839C56.9499 48.2795 56.6454 48.2099 56.2886 48.2099C55.9232 48.2012 55.5055 48.2795 55.0095 48.4448C54.6093 48.5753 54.2351 48.7755 53.8609 48.9756C53.4868 49.167 53.1474 49.3933 52.8603 49.5934C52.5558 49.7848 52.3034 49.9588 52.1294 50.0894C51.9554 50.2199 51.851 50.2982 51.851 50.2982C51.851 50.2982 52.0076 50.3591 52.2425 50.4287C52.4775 50.4983 52.8081 50.6027 53.1735 50.681C53.887 50.8551 54.7398 50.9769 55.1488 50.8377Z" fill="#F0BC36"/>
<path d="M56.9674 51.4727C56.9674 51.4727 56.715 52.0644 56.4018 52.7866C56.2452 53.1346 56.0798 53.5262 55.9406 53.8829C55.7927 54.231 55.6709 54.5442 55.6274 54.7705C55.5838 54.9967 55.5926 55.3186 55.6361 55.6841L57.0196 57.0589C57.2632 56.6586 57.5155 56.1975 57.7418 55.7102C57.9506 55.2142 58.1159 54.7008 58.2116 54.2136C58.4031 53.0128 58.0637 52.3428 57.707 51.9599C57.3502 51.5771 56.9674 51.4727 56.9674 51.4727Z" fill="#F0BC36"/>
<path d="M52.1642 52.221L53.7739 53.822C54.3482 53.5 54.8094 53.2129 54.8094 53.2129C54.8094 53.2129 54.6528 52.8735 54.2264 52.5864C53.8175 52.2993 53.1387 52.073 52.1642 52.221Z" fill="#F0BC36"/>
<path d="M64.2329 46.2693L62.4318 45.521C62.7102 46.017 63.0583 46.5652 63.3541 47.0002C63.6499 47.444 63.8762 47.7572 63.8762 47.7572C63.8762 47.7572 63.9284 47.6006 63.998 47.3396C64.0589 47.0785 64.1633 46.7044 64.2329 46.2693Z" fill="#F0BC36"/>
<path d="M55.0619 46.1911C55.0619 46.1911 55.6971 46.2781 56.4367 46.2955C57.1937 46.3216 58.0116 46.2346 58.4032 46.0257C58.612 45.9126 58.8905 45.6951 59.1602 45.408C59.4299 45.1295 59.7432 44.8163 59.9868 44.5117L57.8898 43.6416L57.7767 43.7112C57.4199 43.9288 57.0719 44.1985 56.7586 44.4769C56.4541 44.7554 56.1408 45.0338 55.8972 45.2948C55.6449 45.5559 55.4361 45.7734 55.2881 45.93C55.1489 46.0954 55.0619 46.1911 55.0619 46.1911Z" fill="#F0BC36"/>
<path d="M50.4067 62.3321C50.4067 62.3321 50.5459 62.2277 50.7634 62.0449C50.981 61.8535 51.2768 61.5751 51.5901 61.2531C51.912 60.9312 52.2427 60.5222 52.5385 60.1046C52.6864 59.8957 52.8343 59.6782 52.9561 59.4606C53.078 59.2344 53.1824 59.0082 53.2694 58.7819C53.7132 57.6682 53.5043 56.9199 53.2433 56.4761C52.9736 56.0323 52.6168 55.8496 52.6168 55.8496C52.6168 55.8496 52.2514 56.3891 51.7989 57.0156C51.6945 57.1722 51.5813 57.3375 51.4595 57.5029C51.3464 57.6682 51.2333 57.8248 51.1202 57.9814C50.9114 58.2947 50.7286 58.5818 50.6416 58.7994C50.4502 59.2257 50.4154 60.0871 50.398 60.879C50.398 61.2705 50.3893 61.636 50.3893 61.9057C50.4067 62.1667 50.4067 62.3321 50.4067 62.3321Z" fill="#F0BC36"/>
<path d="M46.8826 57.8247C47.309 57.8508 48.1443 57.729 48.8578 57.5202C49.2145 57.4245 49.5539 57.3288 49.7888 57.2418C50.0325 57.1547 50.1804 57.0938 50.1804 57.0938C50.1804 57.0938 50.0847 56.711 49.7192 56.3455C49.5365 56.1541 49.2842 55.9714 48.9448 55.8321C48.7795 55.7625 48.5881 55.7016 48.3792 55.6581C48.1704 55.6146 47.9268 55.5798 47.6657 55.5624C47.2481 55.5363 46.8217 55.5798 46.404 55.6146C45.9864 55.6581 45.5948 55.7451 45.2468 55.806C44.8987 55.867 44.6029 55.9366 44.394 55.9975C44.1765 56.0497 44.0547 56.0758 44.0547 56.0758C44.0547 56.0758 44.5332 56.5195 45.1249 56.9372C45.7079 57.3462 46.4562 57.7899 46.8826 57.8247Z" fill="#F0BC36"/>
<path d="M48.3183 59.104C48.3183 59.104 48.2052 59.2171 48.0138 59.3999C47.9181 59.4956 47.8137 59.6087 47.6918 59.7305C47.57 59.8436 47.4308 59.9741 47.2916 60.1134C47.0131 60.3744 46.7173 60.6877 46.4476 60.9487C46.1778 61.2097 45.9516 61.4621 45.8124 61.6535C45.6818 61.8449 45.5774 62.1495 45.473 62.4975L46.2213 64.2987C46.987 63.7505 47.8833 62.9674 48.4054 62.1147C48.7273 61.61 48.8665 61.1575 48.91 60.7747C48.9535 60.4005 48.8926 60.0873 48.8056 59.8436C48.6403 59.3389 48.3183 59.104 48.3183 59.104Z" fill="#F0BC36"/>
<path d="M43.6022 57.9553L44.4723 60.0523C44.803 60.0262 45.0988 59.974 45.3163 59.9392C45.5339 59.9044 45.6644 59.887 45.6644 59.887C45.6644 59.887 45.647 59.5129 45.3685 59.0952C45.0901 58.6601 44.5593 58.199 43.6022 57.9553Z" fill="#F0BC36"/>
<path d="M57.0283 57.0679L55.6448 55.6931C55.7057 56.2413 55.8275 56.8939 55.9319 57.416C56.0363 57.9294 56.1234 58.3122 56.1234 58.3122C56.1234 58.3122 56.541 57.7988 57.0283 57.0679Z" fill="#F0BC36"/>
<path d="M48.5793 53.4916C48.5793 53.4916 49.1275 53.8135 49.8062 54.1094C50.1456 54.2573 50.5197 54.3965 50.8591 54.4922C51.1984 54.5879 51.5117 54.6402 51.7205 54.614C51.9555 54.5792 52.3035 54.4922 52.6603 54.3356C53.0257 54.1877 53.4173 53.9963 53.7653 53.8222L52.1556 52.2212L52.0251 52.2386C51.6074 52.2995 51.1811 52.4126 50.7982 52.5518C50.3979 52.6823 50.0151 52.8303 49.6931 52.9782C49.3625 53.1174 49.084 53.2392 48.8839 53.335C48.6925 53.4307 48.5793 53.4916 48.5793 53.4916Z" fill="#F0BC36"/>
<path d="M38.0944 66.6217C38.0944 66.6217 38.2597 66.5782 38.5381 66.4912C38.8079 66.4042 39.1907 66.2563 39.6084 66.0735C40.0347 65.8995 40.4872 65.6559 40.931 65.3774C41.1485 65.2382 41.366 65.099 41.5662 64.9424C41.7663 64.7858 41.949 64.6117 42.1231 64.4377C42.9584 63.5763 43.0628 62.8193 42.9845 62.2972C42.9062 61.7751 42.6451 61.4792 42.6451 61.4792C42.6451 61.4792 42.5059 61.5663 42.2971 61.7142C42.0795 61.8447 41.775 62.0361 41.4444 62.2363C41.2877 62.3407 41.1137 62.4538 40.9484 62.5582C40.7744 62.6626 40.609 62.767 40.4524 62.8715C40.1392 63.0803 39.8607 63.2804 39.6954 63.4458C39.356 63.759 38.9906 64.5508 38.6686 65.2643C38.512 65.6211 38.3728 65.9604 38.2684 66.204C38.164 66.4651 38.0944 66.6217 38.0944 66.6217Z" fill="#F0BC36"/>
<path d="M36.5803 61.0965C36.9631 61.2879 37.7811 61.4967 38.5207 61.5751C39.2516 61.6795 39.8955 61.6882 39.8955 61.6882C39.8955 61.6882 39.9564 61.3053 39.7563 60.818C39.6605 60.5744 39.4952 60.3047 39.2429 60.0523C38.9905 59.8 38.6425 59.539 38.1639 59.3127C37.7898 59.13 37.3808 59.0082 36.9805 58.8777C36.5803 58.7558 36.1887 58.6862 35.8407 58.5992C35.4926 58.5209 35.1881 58.4687 34.9792 58.4426C34.7617 58.4165 34.6399 58.3904 34.6399 58.3904C34.6399 58.3904 34.7095 58.5383 34.8226 58.7645C34.9357 58.9908 35.1098 59.2866 35.3012 59.5998C35.6841 60.2089 36.1974 60.905 36.5803 61.0965Z" fill="#F0BC36"/>
<path d="M37.4155 62.8279C37.4155 62.8279 37.2676 62.8888 37.024 62.9932C36.9022 63.0454 36.763 63.0976 36.6063 63.1672C36.4497 63.2282 36.2757 63.2891 36.0929 63.3587C35.7362 63.4979 35.3446 63.6545 34.9966 63.8111C34.6485 63.9504 34.3353 64.0896 34.1438 64.2201C33.9524 64.3506 33.7349 64.5855 33.5087 64.8727V66.8218C33.9611 66.7087 34.4745 66.5608 34.9705 66.378C35.4665 66.1866 35.9537 65.9256 36.3627 65.6471C36.8587 65.3078 37.1632 64.9336 37.3459 64.603C37.5286 64.2723 37.5983 63.959 37.607 63.698C37.6157 63.1759 37.4155 62.8279 37.4155 62.8279Z" fill="#F0BC36"/>
<path d="M33.5 59.9565V62.2276C34.1352 62.4103 34.666 62.5321 34.666 62.5321C34.666 62.5321 34.7965 62.1841 34.7008 61.6794C34.6051 61.1834 34.2918 60.5395 33.5 59.9565Z" fill="#F0BC36"/>
<path d="M46.2387 64.2897L45.4904 62.4885C45.3337 63.0193 45.2032 63.6719 45.0988 64.194C45.0031 64.7073 44.9335 65.0989 44.9335 65.0989C44.9335 65.0989 44.9683 65.0815 45.0379 65.0467C45.0988 65.0119 45.1945 64.951 45.3163 64.8901C45.5513 64.7422 45.8732 64.5333 46.2387 64.2897Z" fill="#F0BC36"/>
<path d="M39.8085 57.7638C39.8085 57.7638 40.1913 58.2685 40.7047 58.7993C40.957 59.069 41.2529 59.3387 41.5313 59.565C41.8098 59.7825 42.0795 59.9391 42.2883 60C42.5146 60.0609 42.8713 60.0958 43.2629 60.1045C43.6544 60.1045 44.0808 60.0784 44.4811 60.0436L43.6109 57.9465L43.4804 57.9117C43.0715 57.8073 42.6451 57.7725 42.2187 57.7377C41.8011 57.7029 41.3921 57.7029 41.0354 57.7116C40.3219 57.7029 39.8085 57.7638 39.8085 57.7638Z" fill="#F0BC36"/>
<path d="M25.0945 65.8733C25.0945 65.8733 25.2685 65.8994 25.5557 65.9081C25.8428 65.9255 26.2431 65.943 26.7042 65.943C27.6266 65.9169 28.7664 65.7863 29.6453 65.3861C30.1935 65.1598 30.5676 64.8553 30.8199 64.5681C31.0723 64.281 31.1941 63.9852 31.2637 63.7415C31.3855 63.2282 31.2637 62.854 31.2637 62.854C31.2637 62.854 31.1071 62.8801 30.846 62.9323C30.585 62.9932 30.237 63.0454 29.8628 63.1063C29.4799 63.1672 29.071 63.2542 28.7055 63.3239C28.3401 63.3848 28.0094 63.4631 27.7919 63.5501C27.3568 63.7328 26.7129 64.3071 26.1473 64.8466C25.8689 65.1163 25.6079 65.3774 25.4164 65.5688C25.2163 65.7515 25.0945 65.8733 25.0945 65.8733Z" fill="#F0BC36"/>
<path d="M25.808 60.1741C25.9473 60.3394 26.1822 60.5482 26.4693 60.7657C26.7565 60.9659 27.0958 61.1747 27.4178 61.3661C27.731 61.5663 28.0443 61.7055 28.2705 61.8186C28.4967 61.9317 28.6446 61.9926 28.6446 61.9926C28.6446 61.9926 28.8448 61.662 28.8535 61.1312C28.8622 60.6004 28.6621 59.9043 27.9573 59.1299C27.6788 58.8166 27.3482 58.5382 27.0262 58.2772C26.6956 58.0074 26.3736 57.7725 26.0778 57.5811C25.4948 57.1721 25.051 56.9285 25.051 56.9285C25.051 56.9285 25.0858 57.5637 25.1989 58.2946C25.2598 58.66 25.3382 59.0516 25.4426 59.3909C25.5383 59.7303 25.6688 60.0087 25.808 60.1741Z" fill="#F0BC36"/>
<path d="M25.9124 62.1058C25.9124 62.1058 25.7471 62.0971 25.4861 62.0971C25.225 62.0971 24.8683 62.0884 24.4767 62.0884C24.0938 62.071 23.6762 62.071 23.2933 62.0797C22.9105 62.0884 22.5798 62.0797 22.3449 62.1319C22.1186 62.1667 21.8315 62.3059 21.5096 62.4799L20.7612 64.2811C21.2224 64.3507 21.7532 64.4203 22.284 64.429C22.8234 64.4377 23.3629 64.3942 23.8502 64.2898C25.0336 63.994 25.5296 63.4371 25.7471 62.9585C25.9646 62.5061 25.9124 62.1058 25.9124 62.1058Z" fill="#F0BC36"/>
<path d="M23.3978 57.9553L22.5277 60.0523C23.0411 60.47 23.4849 60.7832 23.4849 60.7832C23.4849 60.7832 23.7372 60.5048 23.8416 60.0088C23.946 59.5128 23.9025 58.7993 23.3978 57.9553Z" fill="#F0BC36"/>
<path d="M33.5001 66.8219V64.8728C33.152 65.2992 32.7779 65.8474 32.4907 66.2911C32.1949 66.7262 31.9948 67.0655 31.9948 67.0655C31.9948 67.0655 32.6474 66.9959 33.5001 66.8219Z" fill="#F0BC36"/>
<path d="M30.063 58.3208C30.063 58.3208 30.2283 58.9386 30.4981 59.6347C30.7678 60.3395 31.1506 61.0704 31.4987 61.3489C31.8642 61.6621 32.7517 61.9927 33.5 62.2364V59.9654L33.3956 59.8871C33.0562 59.6347 32.6734 59.4172 32.2992 59.2431C31.9251 59.0517 31.5509 58.8777 31.2203 58.7559C30.8896 58.634 30.6025 58.5122 30.3936 58.4426C30.1848 58.3556 30.063 58.3208 30.063 58.3208Z" fill="#F0BC36"/>
<path d="M13.3652 60.1743C13.3652 60.1743 13.5132 60.27 13.7742 60.3918C14.0352 60.5224 14.4007 60.6877 14.8184 60.8617C15.6711 61.1924 16.7849 61.5056 17.7507 61.4795C18.3511 61.4795 18.8036 61.349 19.1429 61.175C19.4823 61.0009 19.7172 60.7834 19.8738 60.5833C20.1871 60.1569 20.2132 59.7653 20.2132 59.7653C20.2132 59.7653 20.0566 59.7305 19.8042 59.6783C19.6737 59.6522 19.5258 59.6174 19.3604 59.5826C19.1951 59.5391 19.0211 59.4956 18.8296 59.4521C18.4555 59.3651 18.0379 59.2868 17.6811 59.1998C17.3156 59.1215 16.9763 59.0605 16.7501 59.0605C16.2802 59.0605 15.471 59.3477 14.7313 59.6261C14.3659 59.7653 14.0265 59.9046 13.7742 60.009C13.5219 60.1134 13.3652 60.1743 13.3652 60.1743Z" fill="#F0BC36"/>
<path d="M16.2105 55.197C16.2801 55.3972 16.4193 55.6843 16.602 55.9889C16.7848 56.2934 17.0197 56.6067 17.246 56.9025C17.4635 57.207 17.6897 57.4594 17.8637 57.6508C18.0378 57.8422 18.1422 57.9641 18.1422 57.9641C18.1422 57.9641 18.4554 57.7291 18.6642 57.2506C18.7687 57.0069 18.8383 56.7024 18.847 56.3369C18.8557 55.9715 18.7774 55.5538 18.612 55.0578C18.4815 54.6576 18.2814 54.2834 18.0813 53.9092C17.8811 53.5351 17.6636 53.2044 17.4722 52.9086C17.2807 52.6041 17.1067 52.3604 16.9762 52.1864C16.8457 52.0124 16.7674 51.908 16.7674 51.908C16.7674 51.908 16.7065 52.0646 16.6369 52.2995C16.5585 52.5432 16.4628 52.8651 16.3845 53.2305C16.1931 53.9354 16.0713 54.7881 16.2105 55.197Z" fill="#F0BC36"/>
<path d="M15.5666 57.0155C15.5666 57.0155 14.9749 56.7632 14.2527 56.4499C13.896 56.2933 13.5131 56.128 13.1564 55.9887C12.8083 55.8408 12.4951 55.719 12.2688 55.6755C12.0426 55.6233 11.7206 55.6407 11.3552 55.6842L9.97168 57.059C10.3719 57.3027 10.8418 57.555 11.3204 57.7812C11.8077 57.99 12.3297 58.1554 12.817 58.2511C14.0091 58.4425 14.6878 58.1032 15.0707 57.7551C15.4622 57.4071 15.5666 57.0155 15.5666 57.0155Z" fill="#F0BC36"/>
<path d="M14.8357 52.2212L13.226 53.8222C13.5479 54.3965 13.8351 54.8664 13.8351 54.8664C13.8351 54.8664 14.1744 54.7097 14.4615 54.2921C14.7487 53.8657 14.9836 53.187 14.8357 52.2212Z" fill="#F0BC36"/>
<path d="M20.7612 64.2899L21.5096 62.4888C21.0136 62.7672 20.4654 63.1153 20.0303 63.4111C19.5953 63.7069 19.2733 63.9332 19.2733 63.9332C19.2733 63.9332 19.4299 63.9854 19.691 64.055C19.9607 64.1159 20.3262 64.2203 20.7612 64.2899Z" fill="#F0BC36"/>
<path d="M20.8571 55.1187C20.8571 55.1187 20.7701 55.7538 20.7526 56.4934C20.7265 57.2505 20.8048 58.0684 21.0137 58.4599C21.1268 58.6688 21.353 58.9472 21.6315 59.217C21.9099 59.4954 22.2231 59.8 22.5277 60.0436L23.3978 57.9466L23.3282 57.8335C23.1107 57.4767 22.8409 57.12 22.5625 56.8154C22.2841 56.5109 22.0056 56.1976 21.7533 55.954C21.4923 55.7016 21.266 55.4928 21.1094 55.3449C20.9528 55.2057 20.8571 55.1187 20.8571 55.1187Z" fill="#F0BC36"/>
<path d="M4.71606 50.4373C4.71606 50.4373 4.82049 50.5765 5.00322 50.7941C5.19465 51.0116 5.46439 51.2987 5.79504 51.6294C6.11699 51.9513 6.52593 52.2733 6.94359 52.5778C7.15243 52.7257 7.36998 52.8737 7.58751 52.9955C7.81374 53.1173 8.03998 53.2217 8.26621 53.3088C9.37998 53.7525 10.1283 53.5524 10.572 53.2827C11.0245 53.0129 11.1985 52.6562 11.1985 52.6562C11.1985 52.6562 11.068 52.5604 10.8505 52.4212C10.633 52.2733 10.3545 52.0558 10.0326 51.8382C9.87595 51.7338 9.71063 51.6207 9.5453 51.4989C9.38868 51.3858 9.22334 51.2727 9.06671 51.1595C8.75347 50.9507 8.46632 50.768 8.24879 50.6723C7.82243 50.4808 6.96101 50.446 6.16919 50.4286C5.78634 50.4199 5.41217 50.4199 5.15113 50.4199C4.89009 50.4373 4.71606 50.4373 4.71606 50.4373Z" fill="#F0BC36"/>
<path d="M9.24071 46.922C9.2059 47.3483 9.33643 48.1837 9.54526 48.8972C9.64097 49.2539 9.73669 49.5933 9.82371 49.8195C9.91072 50.0632 9.9629 50.2111 9.9629 50.2111C9.9629 50.2111 10.3458 50.1154 10.7199 49.7499C10.9114 49.5672 11.0941 49.3148 11.2333 48.9755C11.3029 48.8102 11.3638 48.6274 11.4073 48.4099C11.4595 48.2011 11.4944 47.9574 11.5031 47.6964C11.5292 47.2787 11.4857 46.8524 11.4508 46.4347C11.4073 46.0083 11.3203 45.6255 11.2681 45.2687C11.2072 44.9207 11.1376 44.6249 11.0854 44.416C11.0332 44.1985 10.9984 44.0767 10.9984 44.0767C10.9984 44.0767 10.5546 44.5552 10.1369 45.1556C9.71058 45.7473 9.26681 46.4956 9.24071 46.922Z" fill="#F0BC36"/>
<path d="M7.953 48.3663C7.953 48.3663 7.83988 48.2532 7.65716 48.0618C7.56144 47.9661 7.45703 47.8616 7.33521 47.7398C7.2221 47.618 7.09158 47.4788 6.96106 47.3396C6.69132 47.0611 6.38678 46.7653 6.12575 46.4955C5.86471 46.2258 5.61234 45.9996 5.42092 45.8603C5.22949 45.7298 4.92495 45.6254 4.5856 45.521L2.78442 46.2693C3.3239 47.035 4.10702 47.9313 4.95975 48.4533C5.46442 48.7753 5.9256 48.9145 6.29976 48.958C6.68261 48.9928 6.98717 48.9406 7.23951 48.8536C7.71808 48.6796 7.953 48.3663 7.953 48.3663Z" fill="#F0BC36"/>
<path d="M9.1102 43.6416L7.01318 44.5117C7.03059 44.8424 7.09149 45.1382 7.11759 45.3558C7.1524 45.5733 7.17851 45.7038 7.17851 45.7038C7.17851 45.7038 7.55265 45.6864 7.97901 45.408C8.40538 45.1382 8.86656 44.5987 9.1102 43.6416Z" fill="#F0BC36"/>
<path d="M9.98035 57.0677L11.3639 55.6929C10.8157 55.7451 10.1631 55.8756 9.64098 55.9713C9.12761 56.0757 8.74475 56.1627 8.74475 56.1627C8.74475 56.1627 9.24944 56.5804 9.98035 57.0677Z" fill="#F0BC36"/>
<path d="M13.5565 48.6187C13.5565 48.6187 13.2346 49.1668 12.9388 49.8542C12.7908 50.1936 12.6429 50.5677 12.5472 50.9071C12.4515 51.2464 12.408 51.5597 12.4341 51.7772C12.4689 52.0035 12.5559 52.3515 12.7038 52.717C12.8518 53.0737 13.0432 53.4653 13.2172 53.822L14.827 52.221L14.8095 52.0905C14.7486 51.6728 14.6268 51.2465 14.4876 50.8549C14.3571 50.4546 14.2091 50.0718 14.0699 49.7411C13.9307 49.4192 13.8089 49.132 13.7132 48.9319C13.6262 48.7405 13.5565 48.6187 13.5565 48.6187Z" fill="#F0BC36"/>
<path d="M0.443726 38.1252C0.443726 38.1252 0.487227 38.2906 0.57424 38.569C0.669954 38.8388 0.809158 39.2216 0.991885 39.6393C1.16591 40.0656 1.40956 40.5181 1.688 40.9532C1.82723 41.1707 1.96645 41.3882 2.12307 41.5884C2.27969 41.7885 2.45371 41.9799 2.62773 42.1452C3.48916 42.9806 4.24617 43.085 4.76825 43.0067C5.29032 42.9283 5.58617 42.6673 5.58617 42.6673C5.58617 42.6673 5.49917 42.5368 5.35124 42.3193C5.21202 42.1017 5.02931 41.7972 4.82048 41.4665C4.71606 41.3012 4.60292 41.1359 4.49851 40.9706C4.39409 40.8052 4.28969 40.6312 4.18527 40.4746C3.97644 40.1614 3.78502 39.8829 3.61969 39.7176C3.30645 39.3782 2.51462 39.0041 1.79242 38.6908C1.43566 38.5429 1.105 38.395 0.852661 38.2906C0.600323 38.1949 0.443726 38.1252 0.443726 38.1252Z" fill="#F0BC36"/>
<path d="M5.96912 36.6198C5.77769 37.0027 5.56887 37.8206 5.49056 38.5602C5.38615 39.2911 5.37744 39.935 5.37744 39.935C5.37744 39.935 5.769 39.9959 6.24757 39.7958C6.74355 39.5957 7.29172 39.1519 7.76159 38.2034C7.94432 37.8206 8.06613 37.4203 8.19665 37.0114C8.32717 36.6111 8.38809 36.2195 8.4751 35.8628C8.55341 35.5147 8.60561 35.2102 8.63172 34.9927C8.65782 34.7838 8.68392 34.6533 8.68392 34.6533C8.68392 34.6533 8.53601 34.7229 8.30977 34.836C8.09224 34.9492 7.7877 35.1232 7.47446 35.3146C6.85667 35.7149 6.16055 36.2369 5.96912 36.6198Z" fill="#F0BC36"/>
<path d="M4.2375 37.4551C4.2375 37.4551 4.1766 37.2985 4.08089 37.0636C4.02868 36.9417 3.96776 36.8025 3.90685 36.6372C3.84594 36.4806 3.77635 36.3066 3.70674 36.1238C3.56752 35.7584 3.41088 35.3755 3.26296 35.0275C3.12374 34.6794 2.98452 34.3662 2.854 34.1747C2.73218 33.9833 2.48854 33.7658 2.2014 33.5396H0.252319C0.365436 33.992 0.51334 34.5054 0.696068 35.0014C0.887496 35.4973 1.13983 35.9846 1.42697 36.3849C1.76632 36.8808 2.14049 37.1854 2.47114 37.3681C2.81049 37.5595 3.11504 37.6204 3.37608 37.6291C3.88946 37.6552 4.2375 37.4551 4.2375 37.4551Z" fill="#F0BC36"/>
<path d="M7.10886 33.5396H4.83783C4.66381 34.1747 4.54199 34.7055 4.54199 34.7055C4.54199 34.7055 4.89003 34.8273 5.3947 34.7316C5.88198 34.6446 6.52587 34.3314 7.10886 33.5396Z" fill="#F0BC36"/>
<path d="M2.77577 46.2694L4.57694 45.5211C4.04616 45.3645 3.39355 45.234 2.87147 45.1209C2.35809 45.0252 1.96655 44.9556 1.96655 44.9556C1.96655 44.9556 1.98395 44.9904 2.01876 45.06C2.05356 45.1209 2.11447 45.2166 2.17538 45.3384C2.3233 45.5821 2.52343 45.904 2.77577 46.2694Z" fill="#F0BC36"/>
<path d="M9.31039 39.8479C9.31039 39.8479 8.80573 40.2308 8.26625 40.7441C7.99651 41.0052 7.72677 41.2836 7.50054 41.5707C7.283 41.8492 7.11768 42.1102 7.06547 42.3277C7.00456 42.554 6.96976 42.9108 6.96106 43.3023C6.96106 43.6939 6.98717 44.1289 7.02198 44.5205L9.11896 43.6504L9.15378 43.5198C9.25819 43.1022 9.29301 42.6845 9.32781 42.2582C9.36262 41.8318 9.37133 41.4315 9.36263 41.0748C9.36263 40.3613 9.31039 39.8479 9.31039 39.8479Z" fill="#F0BC36"/>
<path d="M1.19208 25.134C1.19208 25.134 1.16598 25.2994 1.14858 25.5952C1.13118 25.8823 1.11377 26.2826 1.11377 26.7438C1.12247 27.2049 1.17468 27.7183 1.25299 28.223C1.3226 28.7364 1.48791 29.241 1.67064 29.6761C1.90557 30.2243 2.19272 30.5984 2.48856 30.8508C2.77571 31.1031 3.06287 31.2249 3.32391 31.2945C3.82858 31.4164 4.21143 31.2945 4.21143 31.2945C4.21143 31.2945 4.18533 31.1292 4.13312 30.8769C4.08091 30.6246 4.01999 30.2765 3.95908 29.8936C3.89818 29.5108 3.81117 29.1018 3.75026 28.7364C3.68935 28.3622 3.61103 28.0403 3.52402 27.8227C3.34129 27.3877 2.76702 26.7438 2.22753 26.1782C1.95779 25.8997 1.69674 25.6387 1.50531 25.4473C1.31388 25.2558 1.19208 25.134 1.19208 25.134Z" fill="#F0BC36"/>
<path d="M6.8914 25.8389C6.72608 25.9781 6.51725 26.213 6.29972 26.5002C6.09959 26.796 5.89076 27.1267 5.70804 27.4486C5.50791 27.7706 5.3687 28.0751 5.25558 28.3013C5.14246 28.5363 5.08154 28.6755 5.08154 28.6755C5.08154 28.6755 5.41218 28.8843 5.94296 28.8843C6.47374 28.893 7.16986 28.6842 7.94428 27.9881C8.26623 27.7097 8.53595 27.379 8.79699 27.0483C9.06673 26.7264 9.30168 26.3958 9.49311 26.0999C9.90207 25.5169 10.1457 25.0645 10.1457 25.0645C10.1457 25.0645 9.5105 25.0993 8.77959 25.2211C8.41414 25.282 8.02257 25.3603 7.68322 25.4647C7.33517 25.5691 7.05673 25.6997 6.8914 25.8389Z" fill="#F0BC36"/>
<path d="M4.95969 25.9432C4.95969 25.9432 4.95969 25.7779 4.9684 25.5168C4.9684 25.2558 4.9684 24.899 4.9684 24.5075C4.9858 24.1246 4.98581 23.7069 4.97711 23.3241C4.9597 22.9412 4.96841 22.6106 4.9249 22.3843C4.88139 22.1581 4.75087 21.8623 4.56814 21.5403L2.76697 20.792C2.69736 21.2532 2.62775 21.7839 2.61035 22.3147C2.61035 22.8542 2.64516 23.3937 2.74958 23.8723C3.04542 25.0556 3.611 25.5429 4.08087 25.7691C4.55944 26.0041 4.95969 25.9432 4.95969 25.9432Z" fill="#F0BC36"/>
<path d="M9.11027 23.4285L7.01325 22.5583C6.60429 23.0717 6.28235 23.5242 6.28235 23.5242C6.28235 23.5242 6.56078 23.7765 7.05675 23.8723C7.54402 23.9767 8.26624 23.9332 9.11027 23.4285Z" fill="#F0BC36"/>
<path d="M0.243635 33.5395H2.19272C1.76635 33.1915 1.21817 32.8173 0.774402 32.5302C0.330636 32.2343 0 32.0342 0 32.0342C0 32.0342 0.0696093 32.6781 0.243635 33.5395Z" fill="#F0BC36"/>
<path d="M8.74481 30.0938C8.74481 30.0938 8.12703 30.2591 7.43093 30.5288C6.72612 30.7899 5.99521 31.1814 5.71677 31.5295C5.40353 31.9036 5.08156 32.7825 4.82922 33.5395H7.10028L7.18729 33.435C7.43963 33.0957 7.65716 32.7129 7.83118 32.3387C8.01391 31.9645 8.18793 31.5904 8.31845 31.251C8.44027 30.9204 8.56208 30.6332 8.63169 30.4244C8.71 30.2156 8.74481 30.0938 8.74481 30.0938Z" fill="#F0BC36"/>
<path d="M6.87402 13.396C6.87402 13.396 6.77831 13.5439 6.65649 13.805C6.53467 14.0573 6.36064 14.4228 6.18661 14.8491C5.85596 15.7019 5.55142 16.8156 5.56883 17.7815C5.56883 18.3818 5.70805 18.8343 5.87338 19.1737C6.0474 19.5217 6.26494 19.748 6.47377 19.9046C6.90013 20.2178 7.29169 20.2439 7.29169 20.2439C7.29169 20.2439 7.32648 20.0786 7.37869 19.8263C7.40479 19.6957 7.43091 19.5478 7.47441 19.3825C7.50922 19.2172 7.55272 19.0345 7.60493 18.8517C7.70064 18.4776 7.77026 18.0686 7.85727 17.7031C7.93558 17.3377 7.9965 17.007 7.9965 16.7721C7.9965 16.3022 7.70936 15.4843 7.43092 14.7534C7.2917 14.3879 7.14377 14.0486 7.04806 13.7963C6.93494 13.5613 6.87402 13.396 6.87402 13.396Z" fill="#F0BC36"/>
<path d="M11.8599 16.2326C11.6511 16.3023 11.3726 16.4415 11.0681 16.6242C10.7635 16.8069 10.4503 17.0419 10.1544 17.2681C9.85857 17.4856 9.59754 17.7119 9.40611 17.8859C9.21468 18.0599 9.10156 18.1643 9.10156 18.1643C9.10156 18.1643 9.3278 18.4776 9.81508 18.6777C10.0587 18.7821 10.3632 18.8604 10.7287 18.8604C11.0942 18.8691 11.5118 18.7908 12.0078 18.6255C12.4081 18.495 12.7822 18.2862 13.1564 18.0947C13.5305 17.8946 13.8699 17.6771 14.157 17.4769C14.4616 17.2855 14.7052 17.1115 14.8792 16.981C15.0533 16.8505 15.1577 16.7721 15.1577 16.7721C15.1577 16.7721 15.0011 16.7199 14.7661 16.6416C14.5225 16.572 14.2005 16.4763 13.8351 16.3893C13.1129 16.2152 12.2601 16.1021 11.8599 16.2326Z" fill="#F0BC36"/>
<path d="M10.0325 15.5974C10.0325 15.5974 10.2849 15.0057 10.5894 14.2835C10.746 13.9267 10.9113 13.5439 11.0506 13.1871C11.1985 12.8391 11.3203 12.5258 11.3638 12.2909C11.4073 12.0647 11.3986 11.7427 11.3551 11.3773L9.97162 10.0024C9.72798 10.4027 9.47565 10.8726 9.24942 11.3512C9.04059 11.8471 8.87527 12.3605 8.78825 12.8478C8.59682 14.0486 8.93615 14.7185 9.28421 15.1101C9.64966 15.493 10.0325 15.5974 10.0325 15.5974Z" fill="#F0BC36"/>
<path d="M14.8357 14.8579L13.226 13.2568C12.6517 13.5788 12.1906 13.8659 12.1906 13.8659C12.1906 13.8659 12.3472 14.2053 12.7735 14.4924C13.1825 14.7708 13.8612 15.0058 14.8357 14.8579Z" fill="#F0BC36"/>
<path d="M2.77563 20.8007L4.57681 21.549C4.29837 21.053 3.95029 20.5135 3.65445 20.0698C3.3586 19.6347 3.13239 19.3127 3.13239 19.3127C3.13239 19.3127 3.08017 19.4694 3.01056 19.7391C2.94095 20.0001 2.83654 20.3656 2.77563 20.8007Z" fill="#F0BC36"/>
<path d="M11.9381 20.8789C11.9381 20.8789 11.3029 20.7919 10.5633 20.7745C9.80629 20.7484 8.98838 20.8354 8.59683 21.0443C8.388 21.1574 8.10956 21.3749 7.83982 21.6534C7.57008 21.9318 7.25682 22.2451 7.01318 22.5496L9.1102 23.4197L9.22332 23.3501C9.58007 23.1326 9.93681 22.8628 10.2414 22.5844C10.5459 22.3059 10.8592 22.0362 11.1028 21.7752C11.3551 21.5141 11.564 21.2879 11.7119 21.1313C11.8598 20.9834 11.9381 20.8789 11.9381 20.8789Z" fill="#F0BC36"/>
<path d="M16.5934 4.73828C16.5934 4.73828 16.4542 4.84269 16.2367 5.02541C16.0191 5.21684 15.7233 5.49529 15.41 5.81723C15.0881 6.13918 14.7574 6.54815 14.4616 6.96581C14.3137 7.17464 14.1657 7.39217 14.0439 7.6097C13.9221 7.83593 13.8177 8.06217 13.7307 8.2884C13.2869 9.40217 13.4958 10.1505 13.7568 10.5942C14.0265 11.0467 14.3833 11.2207 14.3833 11.2207C14.3833 11.2207 14.7487 10.6726 15.2012 10.0548C15.3056 9.89814 15.4274 9.73283 15.5405 9.55881C15.6537 9.40218 15.7668 9.23684 15.8712 9.08022C16.08 8.77568 16.2628 8.47983 16.3585 8.2623C16.5412 7.83593 16.5847 6.97452 16.6021 6.1827C16.6021 5.79114 16.6108 5.42567 16.6108 5.15593C16.5934 4.90359 16.5934 4.73828 16.5934 4.73828Z" fill="#F0BC36"/>
<path d="M20.1174 9.25414C19.691 9.21933 18.8557 9.34986 18.1422 9.55869C17.7854 9.6631 17.4461 9.7501 17.2111 9.83711C16.9675 9.92412 16.8196 9.98504 16.8196 9.98504C16.8196 9.98504 16.9153 10.3679 17.2807 10.7421C17.4635 10.9248 17.7158 11.1162 18.0552 11.2554C18.2205 11.325 18.4119 11.386 18.6208 11.4295C18.8296 11.473 19.0732 11.5078 19.3343 11.5252C19.7519 11.5513 20.1783 11.5078 20.5959 11.473C21.0136 11.4295 21.3965 11.3424 21.7532 11.2902C22.1013 11.2293 22.3971 11.151 22.6059 11.0988C22.8148 11.0466 22.9453 11.0205 22.9453 11.0205C22.9453 11.0205 22.4667 10.5767 21.875 10.1591C21.292 9.72399 20.5524 9.28894 20.1174 9.25414Z" fill="#F0BC36"/>
<path d="M18.6816 7.97506C18.6816 7.97506 18.7948 7.86193 18.9862 7.67051C19.0819 7.57479 19.1863 7.47038 19.3081 7.34856C19.43 7.23544 19.5692 7.10493 19.7084 6.97441C19.9868 6.71337 20.2827 6.40011 20.5524 6.13907C20.8222 5.87803 21.0484 5.62569 21.1876 5.43426C21.3181 5.24284 21.4225 4.93829 21.527 4.59024L20.7787 2.78906C20.0129 3.33724 19.1167 4.12037 18.5946 4.9731C18.264 5.47777 18.1335 5.93895 18.09 6.3131C18.0465 6.69596 18.1074 7.00051 18.1944 7.24415C18.3597 7.73142 18.6816 7.97506 18.6816 7.97506Z" fill="#F0BC36"/>
<path d="M23.3978 9.12363L22.5276 7.02661C22.197 7.04401 21.9012 7.1049 21.6836 7.13971C21.4661 7.17451 21.3356 7.20062 21.3356 7.20062C21.3356 7.20062 21.353 7.57478 21.6314 7.99244C21.9099 8.41881 22.4406 8.87129 23.3978 9.12363Z" fill="#F0BC36"/>
<path d="M9.98035 10.0111L11.3638 11.3859C11.3029 10.8377 11.1811 10.1852 11.0767 9.66308C10.9723 9.1497 10.8853 8.76685 10.8853 8.76685C10.8853 8.76685 10.4589 9.27151 9.98035 10.0111Z" fill="#F0BC36"/>
<path d="M18.4205 13.5787C18.4205 13.5787 17.8724 13.2567 17.185 12.9609C16.8456 12.8129 16.4715 12.665 16.1321 12.5693C15.7928 12.4823 15.4795 12.4301 15.262 12.4562C15.027 12.491 14.679 12.578 14.3222 12.7347C13.9655 12.8826 13.5652 13.074 13.2172 13.248L14.8269 14.8491L14.9574 14.8317C15.3751 14.7708 15.7927 14.6576 16.193 14.5097C16.5933 14.3792 16.9761 14.2313 17.2981 14.0833C17.62 13.9354 17.9072 13.8223 18.1073 13.7266C18.3074 13.6396 18.4205 13.5787 18.4205 13.5787Z" fill="#F0BC36"/>
<path d="M28.9058 0.448486C28.9058 0.448486 28.7404 0.491979 28.462 0.570291C28.1923 0.666005 27.8094 0.805235 27.3917 0.987963C26.9654 1.16199 26.5129 1.40561 26.0691 1.67535C25.8516 1.81457 25.6341 1.9625 25.4339 2.11912C25.2338 2.28445 25.0511 2.44978 24.8858 2.62381C24.0505 3.48524 23.946 4.24225 24.0243 4.76432C24.1026 5.2864 24.3637 5.58225 24.3637 5.58225C24.3637 5.58225 24.5029 5.49522 24.7117 5.3473C24.9293 5.21678 25.2338 5.02536 25.5645 4.81653C25.7298 4.71211 25.8951 4.6077 26.0604 4.49459C26.2258 4.39017 26.3998 4.28574 26.5564 4.18132C26.8697 3.98119 27.1481 3.78107 27.3134 3.61575C27.6528 3.3025 28.0182 2.51067 28.3402 1.78847C28.4881 1.43171 28.636 1.10108 28.7404 0.848739C28.8449 0.605102 28.9058 0.448486 28.9058 0.448486Z" fill="#F0BC36"/>
<path d="M30.4197 5.98255C30.0369 5.79112 29.2189 5.5823 28.4793 5.50399C27.7397 5.39087 27.1045 5.39087 27.1045 5.39087C27.1045 5.39087 27.0436 5.78243 27.2438 6.261C27.3395 6.50464 27.5048 6.77438 27.7571 7.02672C28.0095 7.27906 28.3662 7.54007 28.8361 7.76631C29.2103 7.94903 29.6192 8.07956 30.0282 8.21008C30.4285 8.3319 30.82 8.40152 31.1681 8.48853C31.5161 8.56684 31.8207 8.61034 32.0295 8.64515C32.247 8.67125 32.3688 8.69735 32.3688 8.69735C32.3688 8.69735 32.2992 8.54944 32.1861 8.3232C32.073 8.10567 31.9077 7.80113 31.7075 7.48789C31.3247 6.87009 30.8026 6.16528 30.4197 5.98255Z" fill="#F0BC36"/>
<path d="M29.5844 4.24218C29.5844 4.24218 29.7323 4.18128 29.9759 4.08557C30.0978 4.03336 30.237 3.97244 30.3936 3.91153C30.5502 3.85062 30.7243 3.78103 30.907 3.71142C31.2637 3.5722 31.6553 3.41556 32.0034 3.25893C32.3514 3.11971 32.6647 2.98049 32.8561 2.84997C33.0475 2.72815 33.265 2.49322 33.4913 2.19737V0.248291C33.0388 0.361408 32.5254 0.509338 32.0295 0.692066C31.5335 0.883494 31.0462 1.13582 30.6373 1.41426C30.1413 1.75361 29.8367 2.12778 29.654 2.45843C29.4713 2.79778 29.4017 3.10231 29.393 3.36334C29.3843 3.90282 29.5844 4.24218 29.5844 4.24218Z" fill="#F0BC36"/>
<path d="M33.5 7.11366V4.84264C32.8648 4.65991 32.334 4.53809 32.334 4.53809C32.334 4.53809 32.2035 4.88615 32.2992 5.39082C32.3949 5.8868 32.7082 6.53068 33.5 7.11366Z" fill="#F0BC36"/>
<path d="M20.7612 2.78041L21.5096 4.58158C21.6662 4.0508 21.7967 3.39819 21.9011 2.87611C21.9968 2.36273 22.0664 1.97119 22.0664 1.97119C22.0664 1.97119 22.0316 1.98859 21.962 2.0234C21.9011 2.0582 21.8054 2.11911 21.6836 2.18872C21.4573 2.33665 21.1267 2.53677 20.7612 2.78041Z" fill="#F0BC36"/>
<path d="M27.1915 9.31499C27.1915 9.31499 26.8087 8.81034 26.2953 8.27956C26.0429 8.00982 25.7471 7.74008 25.4686 7.51384C25.1902 7.29631 24.9292 7.13969 24.7116 7.07878C24.4854 7.01787 24.1287 6.98307 23.7371 6.97437C23.3455 6.98307 22.9192 7.00915 22.5189 7.03525L23.3891 9.13227L23.5196 9.16708C23.9285 9.2715 24.3549 9.31502 24.7812 9.34112C25.2076 9.37592 25.6079 9.38462 25.9646 9.36722C26.6868 9.37592 27.1915 9.31499 27.1915 9.31499Z" fill="#F0BC36"/>
<path d="M41.9055 1.1968C41.9055 1.2055 41.7315 1.17939 41.4443 1.16198C41.1572 1.14458 40.7569 1.1272 40.2957 1.1272C39.3734 1.1533 38.2335 1.29251 37.3547 1.68407C36.8065 1.919 36.4324 2.21485 36.18 2.50199C35.9277 2.78913 35.8059 3.08497 35.7363 3.33731C35.6145 3.84198 35.7363 4.22486 35.7363 4.22486C35.7363 4.22486 35.8929 4.19006 36.1539 4.14655C36.415 4.08564 36.763 4.03342 37.1372 3.97251C37.52 3.9116 37.929 3.8246 38.2945 3.76369C38.6686 3.69408 38.9906 3.62446 39.2168 3.53745C39.6519 3.35472 40.2957 2.78044 40.8613 2.24096C41.1398 1.97122 41.4008 1.71017 41.5922 1.51874C41.7837 1.31861 41.9055 1.1968 41.9055 1.1968Z" fill="#F0BC36"/>
<path d="M41.192 6.89612C41.0527 6.73079 40.8178 6.52198 40.5306 6.31315C40.2435 6.11302 39.9042 5.90419 39.5822 5.72147C39.269 5.52134 38.9557 5.3821 38.7295 5.26898C38.4946 5.15586 38.3553 5.09497 38.3553 5.09497C38.3553 5.09497 38.1465 5.43431 38.1465 5.95639C38.1378 6.48717 38.3466 7.18326 39.0427 7.95768C39.3212 8.27963 39.6431 8.54938 39.9738 8.81042C40.2957 9.08016 40.6264 9.30638 40.9222 9.50651C41.5052 9.91547 41.949 10.1591 41.949 10.1591C41.949 10.1591 41.9229 9.52393 41.8011 8.79302C41.7401 8.42757 41.6618 8.036 41.5574 7.69665C41.4617 7.3486 41.3312 7.06144 41.192 6.89612Z" fill="#F0BC36"/>
<path d="M41.0875 4.96427C41.0875 4.96427 41.2528 4.96427 41.5139 4.97298C41.7749 4.97298 42.1317 4.97298 42.5232 4.98169C42.9061 4.99909 43.3237 4.9991 43.7066 4.9904C44.0895 4.98169 44.4201 4.99037 44.6551 4.93816C44.8813 4.89466 45.1771 4.76414 45.4904 4.59012L46.2387 2.78894C45.7775 2.71933 45.2467 2.64973 44.7159 2.63232C44.1765 2.63232 43.637 2.66713 43.1497 2.77155C41.9663 3.05869 41.4704 3.62427 41.2528 4.10285C41.0353 4.57272 41.0875 4.96427 41.0875 4.96427Z" fill="#F0BC36"/>
<path d="M43.6022 9.12358L44.4724 7.02656C43.959 6.6176 43.5153 6.29565 43.5153 6.29565C43.5153 6.29565 43.2629 6.57408 43.1585 7.07006C43.0541 7.55733 43.0976 8.27955 43.6022 9.12358Z" fill="#F0BC36"/>
<path d="M33.5 0.248274V2.19736C33.8481 1.77099 34.2222 1.22281 34.5094 0.77904C34.7965 0.343976 35.0053 0.00463867 35.0053 0.00463867C35.0053 0.00463867 34.3614 0.074248 33.5 0.248274Z" fill="#F0BC36"/>
<path d="M36.9457 8.74932C36.9457 8.74932 36.7803 8.13155 36.5106 7.43545C36.2409 6.73064 35.858 5.99973 35.51 5.72129C35.1445 5.40804 34.257 5.08608 33.5087 4.83374V7.10479L33.6131 7.1831C33.9524 7.43544 34.3353 7.65296 34.7094 7.82699C35.0836 8.00972 35.4578 8.18374 35.7884 8.31426C36.1191 8.43608 36.4062 8.55791 36.615 8.62752C36.8151 8.71453 36.9457 8.74932 36.9457 8.74932Z" fill="#F0BC36"/>
<path d="M53.6348 6.89608C53.6348 6.89608 53.4869 6.80036 53.2258 6.67854C52.9648 6.55672 52.5993 6.38272 52.1817 6.20869C51.329 5.87804 50.2152 5.56478 49.2493 5.59088C48.6577 5.59088 48.1965 5.73011 47.8571 5.89543C47.5178 6.06946 47.2829 6.28699 47.1262 6.49582C46.813 6.91349 46.7869 7.31375 46.7869 7.31375C46.7869 7.31375 46.9435 7.34856 47.2045 7.40077C47.3351 7.42687 47.483 7.46166 47.6483 7.49647C47.8136 7.53127 47.9876 7.5835 48.1791 7.62701C48.5532 7.71402 48.9709 7.79231 49.3363 7.87933C49.7018 7.95764 50.0324 8.01855 50.2674 8.01855C50.7373 8.01855 51.5465 7.73141 52.2861 7.45297C52.6515 7.31375 52.9909 7.16582 53.2432 7.0614C53.4782 6.95699 53.6348 6.89608 53.6348 6.89608Z" fill="#F0BC36"/>
<path d="M50.7895 11.873C50.7286 11.6729 50.5806 11.3858 50.3979 11.0812C50.2152 10.7767 49.9803 10.4634 49.754 10.1676C49.5365 9.86305 49.3103 9.60202 49.1362 9.4193C48.9622 9.22787 48.8578 9.11475 48.8578 9.11475C48.8578 9.11475 48.5445 9.34099 48.3357 9.82826C48.2313 10.0719 48.1617 10.3764 48.153 10.7332C48.1443 11.0986 48.2226 11.5076 48.3879 12.0123C48.5184 12.4125 48.7186 12.7867 48.9187 13.1608C49.1188 13.535 49.3364 13.8743 49.5365 14.1615C49.7279 14.466 49.902 14.7184 50.0325 14.8837C50.163 15.0577 50.2413 15.1621 50.2413 15.1621C50.2413 15.1621 50.3022 15.0055 50.3718 14.7706C50.4501 14.5357 50.5371 14.205 50.6242 13.8483C50.8069 13.1347 50.9287 12.282 50.7895 11.873Z" fill="#F0BC36"/>
<path d="M51.4333 10.0544C51.4333 10.0544 52.025 10.3068 52.7473 10.62C53.104 10.7766 53.4869 10.942 53.8436 11.0812C54.1917 11.2291 54.5049 11.351 54.7311 11.4032C54.9574 11.4467 55.2793 11.438 55.6448 11.3945L57.0283 10.0197C56.628 9.77602 56.1582 9.51497 55.6796 9.29743C55.1923 9.0799 54.6702 8.91457 54.183 8.82756C52.9822 8.63613 52.3035 8.97548 51.9206 9.32354C51.5378 9.67159 51.4333 10.0544 51.4333 10.0544Z" fill="#F0BC36"/>
<path d="M52.1643 14.8577L53.774 13.2566C53.4521 12.6824 53.1649 12.2212 53.1649 12.2212C53.1649 12.2212 52.8256 12.3778 52.5384 12.7955C52.2513 13.2131 52.0163 13.8831 52.1643 14.8577Z" fill="#F0BC36"/>
<path d="M46.2387 2.78027L45.4904 4.58145C45.9863 4.30301 46.5345 3.95493 46.9696 3.65909C47.4046 3.37194 47.7266 3.14571 47.7266 3.14571C47.7266 3.14571 47.57 3.09352 47.3089 3.02391C47.0392 2.963 46.6737 2.85859 46.2387 2.78027Z" fill="#F0BC36"/>
<path d="M46.1518 11.9515C46.1518 11.9515 46.2388 11.3163 46.2562 10.5767C46.2823 9.81964 46.204 9.00171 45.9864 8.61015C45.8733 8.40132 45.6471 8.1229 45.3773 7.84446C45.0989 7.57472 44.7856 7.26146 44.4811 7.01782L43.611 9.11484L43.6806 9.22796C43.8981 9.58471 44.1678 9.93275 44.4463 10.246C44.7247 10.5505 45.0032 10.8638 45.2555 11.1074C45.5166 11.3598 45.7428 11.5686 45.8907 11.7165C46.0473 11.8731 46.1518 11.9515 46.1518 11.9515Z" fill="#F0BC36"/>
<path d="M62.2838 16.6329C62.2838 16.6329 62.1794 16.4937 61.9967 16.2761C61.8053 16.0586 61.5268 15.7628 61.2049 15.4495C60.8829 15.1276 60.474 14.7969 60.0563 14.4924C59.8475 14.3444 59.63 14.1965 59.4124 14.0747C59.1862 13.9529 58.96 13.8485 58.7337 13.7615C57.62 13.3177 56.8717 13.5178 56.4279 13.7876C55.9754 14.0573 55.8014 14.4141 55.8014 14.4141C55.8014 14.4141 55.9406 14.5011 56.1494 14.649C56.367 14.7969 56.6454 15.0058 56.9674 15.232C57.124 15.3451 57.2893 15.4582 57.4546 15.5713C57.6113 15.6844 57.7766 15.7976 57.9332 15.9107C58.2464 16.1195 58.5336 16.3022 58.7511 16.3892C59.1775 16.5807 60.0389 16.6242 60.8307 16.6329C61.2136 16.6416 61.5877 16.6416 61.8488 16.6416C62.1185 16.6329 62.2838 16.6329 62.2838 16.6329Z" fill="#F0BC36"/>
<path d="M57.7678 20.1481C57.7939 19.7218 57.6721 18.8865 57.4633 18.173C57.3676 17.8162 57.2719 17.4768 57.1849 17.2419C57.0979 17.007 57.0456 16.8503 57.0456 16.8503C57.0456 16.8503 56.6628 16.9461 56.2886 17.3115C56.0972 17.4942 55.9145 17.7466 55.7753 18.0859C55.7056 18.2513 55.6447 18.434 55.6012 18.6515C55.5577 18.8603 55.5229 19.104 55.5055 19.365C55.4794 19.7827 55.5229 20.209 55.5577 20.6267C55.6012 21.0444 55.6882 21.4272 55.7404 21.784C55.8014 22.132 55.871 22.4279 55.9232 22.6367C55.9754 22.8543 56.0015 22.9761 56.0015 22.9761C56.0015 22.9761 56.4453 22.4975 56.8629 21.9058C57.2893 21.3228 57.733 20.5745 57.7678 20.1481Z" fill="#F0BC36"/>
<path d="M59.047 18.7126C59.047 18.7126 59.1601 18.8257 59.3428 19.0172C59.4386 19.1129 59.543 19.2173 59.6648 19.3391C59.7779 19.4609 59.9084 19.6001 60.039 19.7394C60.3 20.0178 60.6132 20.3136 60.8743 20.5834C61.1353 20.8531 61.3876 21.0794 61.5791 21.2099C61.7705 21.3404 62.075 21.4535 62.4144 21.5492L64.2156 20.8009C63.6761 20.0352 62.893 19.139 62.0402 18.6082C61.5356 18.2863 61.0744 18.147 60.7003 18.1035C60.3174 18.06 60.0128 18.1209 59.7605 18.2079C59.2819 18.3994 59.047 18.7126 59.047 18.7126Z" fill="#F0BC36"/>
<path d="M57.8898 23.4287L59.9868 22.5585C59.9607 22.2192 59.9085 21.932 59.8737 21.7145C59.8389 21.497 59.8215 21.3665 59.8215 21.3665C59.8215 21.3665 59.4473 21.3839 59.0209 21.6623C58.5946 21.9407 58.1421 22.4715 57.8898 23.4287Z" fill="#F0BC36"/>
<path d="M57.0283 10.0112L55.6448 11.386C56.193 11.3251 56.8456 11.2033 57.3589 11.0989C57.881 10.9945 58.2552 10.9075 58.2552 10.9075C58.2552 10.9075 57.7505 10.4898 57.0283 10.0112Z" fill="#F0BC36"/>
<path d="M53.4434 18.4515C53.4434 18.4515 53.7653 17.9033 54.0612 17.2159C54.2091 16.8766 54.357 16.5024 54.4527 16.1631C54.5484 15.8237 54.5919 15.5192 54.5658 15.3016C54.531 15.0667 54.444 14.7186 54.2961 14.3619C54.1482 14.0051 53.9567 13.6136 53.7827 13.2568L52.173 14.8579L52.1904 14.9884C52.2513 15.406 52.3731 15.8324 52.5123 16.2153C52.6429 16.6242 52.7908 16.9984 52.93 17.329C53.0692 17.651 53.191 17.9381 53.2867 18.1383C53.3825 18.3384 53.4434 18.4515 53.4434 18.4515Z" fill="#F0BC36"/>
<path d="M66.5562 28.9452C66.5562 28.9452 66.5127 28.7799 66.4257 28.5015C66.33 28.2317 66.1908 27.8489 66.0081 27.4312C65.834 27.0048 65.5904 26.5437 65.3207 26.1086C65.1815 25.8911 65.0335 25.6735 64.8856 25.4734C64.729 25.2733 64.5549 25.0905 64.3809 24.9252C63.5195 24.0812 62.7625 23.9855 62.2404 24.0638C61.7183 24.1421 61.4225 24.4032 61.4225 24.4032C61.4225 24.4032 61.5095 24.5337 61.6574 24.7599C61.7966 24.9774 61.9794 25.282 62.1882 25.6039C62.2926 25.7605 62.397 25.9346 62.5101 26.0999C62.6146 26.2652 62.719 26.4393 62.8234 26.5959C63.0322 26.9091 63.2324 27.1876 63.389 27.3529C63.7022 27.6922 64.494 28.0664 65.2162 28.3796C65.573 28.5276 65.9037 28.6755 66.156 28.7799C66.3996 28.8756 66.5562 28.9452 66.5562 28.9452Z" fill="#F0BC36"/>
<path d="M61.031 30.4505C61.2224 30.0677 61.4312 29.2411 61.5096 28.5102C61.614 27.7706 61.6227 27.1266 61.6227 27.1266C61.6227 27.1266 61.2311 27.0657 60.7525 27.2659C60.2566 27.466 59.7084 27.9098 59.2385 28.8582C59.0558 29.2324 58.934 29.6413 58.8034 30.0416C58.6729 30.4418 58.612 30.8334 58.525 31.1902C58.4467 31.5382 58.3945 31.8427 58.3684 32.0516C58.3423 32.2691 58.3162 32.3997 58.3162 32.3997C58.3162 32.3997 58.4641 32.33 58.6903 32.2169C58.9078 32.1038 59.2124 31.9385 59.5257 31.7383C60.1434 31.3555 60.8395 30.8421 61.031 30.4505Z" fill="#F0BC36"/>
<path d="M62.7712 29.6151C62.7712 29.6151 62.8322 29.763 62.9279 30.0153C62.9801 30.1372 63.041 30.2764 63.1019 30.433C63.1628 30.5896 63.2237 30.7637 63.2933 30.9464C63.4325 31.3118 63.5892 31.6947 63.7458 32.0428C63.885 32.3908 64.0242 32.6953 64.1547 32.8955C64.2766 33.0869 64.5202 33.3131 64.8073 33.5307H66.7564C66.6433 33.0782 66.4954 32.5648 66.3127 32.0689C66.1212 31.5729 65.8602 31.0856 65.5818 30.6854C65.2511 30.1894 64.8683 29.8935 64.5376 29.7021C64.207 29.5194 63.8937 29.4498 63.6327 29.4411C63.1106 29.4237 62.7712 29.6151 62.7712 29.6151Z" fill="#F0BC36"/>
<path d="M59.891 33.5395H62.162C62.3448 32.9043 62.4666 32.3735 62.4666 32.3735C62.4666 32.3735 62.1098 32.2517 61.6139 32.3387C61.1179 32.4344 60.474 32.7477 59.891 33.5395Z" fill="#F0BC36"/>
<path d="M64.2329 20.8008L62.4318 21.5491C62.9625 21.7057 63.6151 21.8449 64.1372 21.9494C64.6506 22.0451 65.0422 22.1147 65.0422 22.1147C65.0422 22.1147 65.0248 22.0799 64.9899 22.0103C64.9551 21.9494 64.9029 21.8536 64.8333 21.7318C64.6767 21.4882 64.4766 21.1662 64.2329 20.8008Z" fill="#F0BC36"/>
<path d="M57.6983 27.2223C57.6983 27.2223 58.203 26.8394 58.7425 26.326C59.0122 26.065 59.2819 25.7865 59.5082 25.4994C59.7257 25.221 59.891 24.9599 59.9432 24.7511C60.0041 24.5249 60.039 24.1681 60.0477 23.7766C60.0477 23.385 60.0216 22.9586 59.9868 22.5583L57.8897 23.4285L57.8549 23.559C57.7505 23.968 57.707 24.403 57.6809 24.8207C57.6461 25.2471 57.6374 25.6473 57.6548 26.0041C57.6374 26.7176 57.6983 27.2223 57.6983 27.2223Z" fill="#F0BC36"/>
<path d="M42 43V41C42 39.9391 41.5786 38.9217 40.8284 38.1716C40.0783 37.4214 39.0609 37 38 37H30C28.9391 37 27.9217 37.4214 27.1716 38.1716C26.4214 38.9217 26 39.9391 26 41V43" stroke="#F0BC36" stroke-width="2" stroke-linecap="round" stroke-linejoin="round"/>
<path d="M34 33C36.2091 33 38 31.2091 38 29C38 26.7909 36.2091 25 34 25C31.7909 25 30 26.7909 30 29C30 31.2091 31.7909 33 34 33Z" stroke="#F0BC36" stroke-width="2" stroke-linecap="round" stroke-linejoin="round"/>
</svg>
