<svg width="264" height="48" viewBox="0 0 264 48" fill="none" xmlns="http://www.w3.org/2000/svg">
<g clip-path="url(#clip0_0_763)">
<path d="M264 0H0V48H264V0Z" fill="#409F66"/>
<path fill-rule="evenodd" clip-rule="evenodd" d="M113.482 10.7489C111.6 12.5304 110.982 14.0719 110.71 16.158C110.439 18.2438 111.93 21.4078 111.93 21.4078C113.636 19.1454 114.28 17.3495 113.936 14.5601C113.756 13.1046 112.984 12.3204 113.482 10.7489ZM212.846 32.7253C212.846 34.9666 211.774 36.0874 209.63 36.0874C207.511 36.0874 206.45 34.9666 206.45 32.7253C206.45 30.5812 207.511 29.5092 209.63 29.5092C211.774 29.5092 212.846 30.5812 212.846 32.7253ZM232.07 34.6986C232.07 35.454 231.68 35.8316 230.899 35.8316H227.063C226.454 35.8316 225.954 35.588 225.565 35.1007L219.133 26.8352C218.547 26.08 218.255 25.41 218.255 24.8253C218.255 24.143 218.571 23.4791 219.199 22.8457L225.638 16.3893C226.075 15.9506 226.551 15.7313 227.063 15.7313H230.826C231.607 15.7313 231.997 16.109 231.997 16.8644C231.997 17.2298 231.85 17.5465 231.558 17.8145L224.248 24.7948L231.667 33.785C231.935 34.1017 232.07 34.4063 232.07 34.6986ZM219.059 34.6621C219.059 35.4417 218.67 35.8316 217.889 35.8316H214.71C213.93 35.8316 213.541 35.4417 213.541 34.6621V10.213C213.541 8.48304 214.381 7.61824 216.062 7.61824H217.889C218.67 7.61824 219.059 8.00808 219.059 8.78762V34.6621ZM253.631 34.4793C253.631 35.3808 253.241 35.8316 252.462 35.8316H236.162C235.334 35.8316 234.92 35.3808 234.92 34.4793V32.2866C234.92 31.8238 235.127 31.4583 235.541 31.1903L245.737 20.4458H236.162C235.334 20.4458 234.92 20.0194 234.92 19.1668V16.9008C234.92 16.1212 235.334 15.7313 236.162 15.7313H252.462C253.241 15.7313 253.631 16.1212 253.631 16.907V19.6662L242.461 31.1172H252.462C253.241 31.1172 253.631 31.507 253.631 32.2866V34.4793ZM218.317 -0.514323H264.498V48.5148H208.016V48.5143H106.616C106.625 48.2511 106.634 47.9873 106.646 47.723C107.637 47.0295 109.517 45.7096 110.161 44.561C111.056 42.9685 111.435 41.7066 111.278 39.3731C109.915 41.5009 107.363 41.1916 106.294 43.7653C105.773 41.0934 103.209 40.1873 102.831 37.5334C101.813 39.9863 101.841 41.6569 102.391 43.6654C102.791 45.1227 104.494 46.9123 105.409 47.7362C105.41 47.9962 105.412 48.2556 105.415 48.5143H-0.498901V-0.514893H218.317V-0.514323ZM149.757 25.6866C149.757 29.1951 149.123 31.7288 147.856 33.2881C146.248 35.2616 143.398 36.2483 139.304 36.2483C137.136 36.2483 134.833 36.0047 132.398 35.5175C131.081 35.2494 130.424 34.4819 130.424 33.2211V10.2216C130.424 8.52225 131.253 7.66956 132.909 7.66956H134.773C135.552 7.66956 135.942 8.04716 135.942 8.79631V15.6732C136.795 15.6 138.001 15.5634 139.56 15.5634C146.358 15.5634 149.757 18.9378 149.757 25.6866ZM144.165 25.6501C144.165 23.7009 143.83 22.3732 143.154 21.6666C142.478 20.96 141.181 20.6068 139.274 20.6068C137.611 20.6068 136.496 20.7164 135.942 20.9357C135.942 20.9357 135.942 20.9479 135.942 20.9722V30.9492C136.795 31.071 137.831 31.1319 139.048 31.1319C141.168 31.1319 142.52 30.8518 143.105 30.2914C143.811 29.6093 144.165 28.0621 144.165 25.6501ZM158.162 10.7028C158.162 12.7737 157.127 13.8093 155.056 13.8093C152.96 13.8093 151.913 12.7737 151.913 10.7028C151.913 8.55882 152.96 7.48681 155.056 7.48681C157.127 7.48681 158.162 8.55882 158.162 10.7028ZM157.797 34.8231C157.797 35.6028 157.407 35.9926 156.627 35.9926H153.448C152.667 35.9926 152.278 35.6028 152.278 34.8231V18.4871C152.278 16.7573 153.119 15.8924 154.8 15.8924H156.627C157.407 15.8924 157.797 16.2822 157.797 17.0618V34.8231ZM167.481 34.8596C167.481 35.6149 167.091 35.9926 166.312 35.9926H163.206C162.377 35.9926 161.962 35.6149 161.962 34.8596V10.5566C161.962 8.85116 162.815 7.99848 164.521 7.99848H166.312C167.091 7.99848 167.481 8.38831 167.481 9.16785V34.8596ZM176.434 10.7028C176.434 12.7737 175.399 13.8093 173.328 13.8093C171.233 13.8093 170.185 12.7737 170.185 10.7028C170.185 8.55882 171.233 7.48681 173.328 7.48681C175.399 7.48681 176.434 8.55882 176.434 10.7028ZM176.07 34.8231C176.07 35.6028 175.68 35.9926 174.899 35.9926H171.72C170.941 35.9926 170.551 35.6028 170.551 34.8231V18.4871C170.551 16.7573 171.392 15.8924 173.073 15.8924H174.899C175.68 15.8924 176.07 16.2822 176.07 17.0618V34.8231ZM205.781 34.8231C205.781 35.6028 205.391 35.9926 204.611 35.9926H201.432C200.653 35.9926 200.263 35.6028 200.263 34.8231V23.4573C200.263 22.4097 200.074 21.6849 199.696 21.2829C199.319 20.8808 198.606 20.6799 197.558 20.6799C196.705 20.6799 195.865 20.7773 195.037 20.9722V34.8231C195.037 35.6028 194.647 35.9926 193.867 35.9926H190.688C189.907 35.9926 189.518 35.6028 189.518 34.8231V23.0919C189.518 22.0442 189.299 21.3621 188.861 21.0453C188.495 20.8016 187.763 20.6799 186.667 20.6799C185.718 20.6799 184.877 20.7652 184.146 20.9357V34.8231C184.146 35.6028 183.757 35.9926 182.976 35.9926H179.797C179.017 35.9926 178.627 35.6028 178.627 34.8231V18.6333C178.627 17.342 179.297 16.5745 180.638 16.3309C183.001 15.8924 185.279 15.6732 187.472 15.6732C189.274 15.6732 190.809 15.941 192.077 16.477C194.147 15.941 195.938 15.6732 197.448 15.6732C203.003 15.6732 205.781 18.0973 205.781 22.9457V34.8231ZM33.656 35.1815C33.8344 35.6572 33.8047 35.8949 33.5668 35.8949H29.3112C28.9743 35.8949 28.7563 35.7562 28.6572 35.4788L27.1264 31.5253H16.9257C16.8364 31.5253 16.7721 31.5551 16.7324 31.6095L15.1967 35.4788C15.0777 35.7562 14.8498 35.8949 14.513 35.8949H10.4405C10.2027 35.8949 10.0838 35.8454 10.0838 35.7463C10.0838 35.6274 10.1333 35.4391 10.2324 35.1815L18.6745 13.8685C18.8924 13.2938 19.3879 13.0064 20.1607 13.0064H23.6386C24.2331 13.0064 24.58 13.0262 24.6791 13.0658C24.8574 13.1452 25.0456 13.4326 25.2438 13.9279L33.656 35.1815ZM25.1497 26.8584L21.8996 18.8871L18.6745 26.8584H25.1497ZM51.9074 33.7844C51.9074 33.9825 51.7785 34.1709 51.5209 34.3493C49.777 35.5184 47.29 36.103 44.0599 36.103C40.1362 36.103 37.2924 35.0726 35.5288 33.0116C33.884 31.0893 33.0615 28.1367 33.0615 24.1534C33.0615 20.7252 33.9929 17.9805 35.8558 15.9196C37.7978 13.7594 40.4632 12.6794 43.8519 12.6794C45.3579 12.6794 46.9432 12.8975 48.6079 13.3335C50.0545 13.7098 51.0256 14.0766 51.5209 14.4333L51.9074 14.9981V17.2869C51.9074 18.2578 51.5803 18.7434 50.9265 18.7434C50.7084 18.7434 50.4607 18.6938 50.1834 18.5948C47.6072 17.6436 45.5659 17.1778 44.0599 17.1977C40.3937 17.2175 38.5608 19.5361 38.5608 24.1534C38.5608 29.068 40.3344 31.5253 43.8816 31.5253C44.8724 31.5253 45.7146 31.456 46.4082 31.3173V24.7776C46.4082 24.6984 46.4528 24.5944 46.542 24.4655C46.6312 24.3367 46.7154 24.2724 46.7946 24.2724H50.2725C51.3625 24.1733 51.9074 24.6192 51.9074 25.61V33.7844ZM76.8468 35.7166C76.8468 35.8354 76.6883 35.8949 76.3713 35.8949H71.1099C70.773 35.8949 70.4263 35.6572 70.0696 35.1815L64.2731 27.6016H61.2411V34.1412C61.2411 35.3103 60.6566 35.8949 59.4873 35.8949H55.8609C55.6428 35.8949 55.5338 35.8157 55.5338 35.6572V14.79C55.5338 13.6208 56.1185 13.0362 57.2876 13.0362H67.3645C73.369 13.0362 76.3713 15.4637 76.3713 20.3139C76.3713 24.1782 74.454 26.5166 70.6145 27.3291L76.6042 35.2162C76.7676 35.4094 76.8468 35.5778 76.8468 35.7166ZM70.3074 20.8935V19.6055H70.2776C70.2776 18.139 68.8905 17.4057 66.1161 17.4057H65.6703H61.2411V23.2617H65.6703H66.121C67.4339 23.2617 68.3207 23.1824 68.7815 23.0239C69.6385 22.7216 70.1488 22.0826 70.3074 21.1016V21.0125C70.3074 20.953 70.3074 20.9134 70.3074 20.8935ZM101.459 24.0642C101.459 28.0672 100.617 31.0398 98.9328 32.9818C97.1295 35.0625 94.2561 36.103 90.3124 36.103C86.3491 36.103 83.4658 35.0726 81.6624 33.0116C79.9779 31.0695 79.1357 28.0871 79.1357 24.0642C79.1357 16.5338 82.8614 12.7686 90.3124 12.7686C97.7437 12.7686 101.459 16.5338 101.459 24.0642ZM95.5739 24.0345C95.5739 21.7358 95.2767 20.1207 94.682 19.1893C93.929 18.0002 92.4626 17.4057 90.2827 17.4057C88.1227 17.4057 86.6464 18.0002 85.8537 19.1893C85.2195 20.1405 84.9025 21.7556 84.9025 24.0345C84.9025 26.5909 85.1799 28.3546 85.7347 29.3256C86.4879 30.6534 88.0039 31.3173 90.2827 31.3173C92.5419 31.3173 94.038 30.6534 94.7713 29.3256C95.3063 28.3546 95.5739 26.5909 95.5739 24.0345ZM109.818 16.9671C109.485 18.5834 110.33 19.265 110.656 20.6836C111.28 23.4026 110.823 25.2557 109.351 27.6993C109.351 27.6993 107.556 24.7385 107.616 22.6413C107.676 20.5442 108.134 18.9472 109.818 16.9671ZM117.837 8.82453C117.889 11.6548 117.057 13.377 115.13 15.4326C115.13 15.4326 113.968 12.0978 114.455 10.0451C114.942 7.99174 115.718 6.52339 117.786 4.95973C117.122 6.46728 117.81 7.34785 117.837 8.82453ZM104.476 30.4249C104.472 32.0762 105.43 32.5381 106.025 33.8398C107.169 36.341 107.083 38.2538 106.122 40.9834C106.122 40.9834 103.791 38.5176 103.44 36.4609C103.271 35.4693 103.215 34.5693 103.342 33.6438C103.387 33.4274 103.428 33.209 103.462 32.9889C103.645 32.1951 103.969 31.3638 104.476 30.4249ZM118.946 9.96727C118.946 9.96727 118.264 7.10271 118.817 5.45459C119.371 3.80648 120.11 2.66876 121.915 1.53768C120.347 4.92008 122.593 6.99493 118.946 9.96727ZM105.187 29.4312C105.04 27.3434 105.337 25.7054 106.811 23.5472C106.643 25.19 107.55 25.7639 108.014 27.1311C108.905 29.7542 108.633 31.6451 107.41 34.2446C107.41 34.2446 105.334 31.5181 105.187 29.4312ZM112.693 33.2607C112.621 35.5981 112.121 36.8053 111.076 38.2783C110.032 39.7511 107.149 41.1581 107.149 41.1581C106.736 34.967 110.181 36.5801 112.693 33.2607ZM110.32 28.1133C111.128 21.9574 114.186 24.3522 117.287 21.6865C116.752 23.9663 116.026 25.0302 114.718 26.2258C113.409 27.4208 110.32 28.1133 110.32 28.1133ZM112.6 32.1473C111.417 33.4873 108.414 34.5398 108.414 34.5398C108.611 28.3345 111.882 30.3529 114.701 27.3454C114.398 29.6663 113.783 30.8071 112.6 32.1473ZM120.437 16.3392C119.67 18.5549 118.84 19.532 117.417 20.5711C115.993 21.6094 112.852 21.9345 112.852 21.9345C114.268 15.8936 117.086 18.6386 120.437 16.3392ZM126.759 7.30831C125.766 9.02179 124.912 9.69448 123.568 10.2997C122.225 10.905 119.608 10.5765 119.608 10.5765C121.679 5.98431 123.64 8.51253 126.759 7.30831ZM124.138 11.3606C123.137 13.4876 122.208 14.3677 120.682 15.2397C119.157 16.1112 115.994 16.0672 115.994 16.0672C118.022 10.2072 120.558 13.2698 124.138 11.3606ZM122.614 4.23951C123.438 1.61356 124.912 1.26772 127.064 0.691614C128.089 0.417214 129.485 -0.223464 129.485 -0.223464C129.485 -0.223464 128.442 1.39928 128.113 2.08008C127.089 4.19265 126.771 5.59071 124.425 6.31562C123.082 6.73071 122.376 6.52076 122.376 6.52076C122.376 6.52076 122.142 5.74408 122.614 4.23951Z" fill="#FEFEFE"/>
</g>
<defs>
<clipPath id="clip0_0_763">
<rect width="264" height="48" fill="white"/>
</clipPath>
</defs>
</svg>
