<svg width="150" height="150" viewBox="0 0 150 150" fill="none" xmlns="http://www.w3.org/2000/svg">
<path fill-rule="evenodd" clip-rule="evenodd" d="M23.1595 15L23.1635 15H99.7319L99.736 15C101.898 15.0063 103.97 15.8685 105.499 17.3984C107.027 18.9283 107.889 21.0014 107.895 23.1649L107.895 23.169V120.031H105.08L105.08 23.1731C105.08 23.1722 105.08 23.1713 105.08 23.1704C105.076 21.7521 104.51 20.3932 103.508 19.3902C102.506 18.3871 101.147 17.8215 99.7297 17.8169H23.1657C21.7481 17.8215 20.3898 18.3871 19.3873 19.3902C18.3848 20.3934 17.8196 21.7526 17.815 23.1712V122.322C17.8233 124.935 18.8643 127.438 20.7106 129.286C22.5568 131.133 25.0582 132.175 27.669 132.183C27.6699 132.183 27.6708 132.183 27.6718 132.183L120 132.183V135H27.6676L27.6634 135C24.3079 134.99 21.0928 133.652 18.7201 131.277C16.3474 128.903 15.01 125.686 15 122.328L15 122.324V23.169L15 23.1649C15.0063 21.0014 15.868 18.9283 17.3968 17.3984C18.9256 15.8685 20.9974 15.0063 23.1595 15Z" fill="black"/>
<path fill-rule="evenodd" clip-rule="evenodd" d="M105 39.4017C105 38.6276 105.634 38 106.415 38H126.792C128.969 38 131.057 38.8566 132.596 40.3812C134.135 41.9059 135 43.9738 135 46.1301V120.142C135 124.082 133.42 127.862 130.607 130.648C127.794 133.435 123.978 135 120 135C116.022 135 112.206 133.435 109.393 130.648C106.58 127.862 105 124.082 105 120.142V39.4017ZM107.83 40.8035V120.142C107.83 123.339 109.112 126.405 111.395 128.666C113.677 130.926 116.772 132.197 120 132.197C123.228 132.197 126.323 130.926 128.605 128.666C130.888 126.405 132.17 123.339 132.17 120.142V46.1301C132.17 44.7174 131.603 43.3625 130.595 42.3636C129.586 41.3647 128.219 40.8035 126.792 40.8035H107.83Z" fill="black"/>
<path fill-rule="evenodd" clip-rule="evenodd" d="M69.1188 39.391C69.1188 38.6228 69.7505 38 70.5297 38H88.5891C89.3683 38 90 38.6228 90 39.391C90 40.1592 89.3683 40.782 88.5891 40.782H70.5297C69.7505 40.782 69.1188 40.1592 69.1188 39.391ZM69.1188 57.1955C69.1188 56.4273 69.7505 55.8045 70.5297 55.8045H88.5891C89.3683 55.8045 90 56.4273 90 57.1955C90 57.9637 89.3683 58.5865 88.5891 58.5865H70.5297C69.7505 58.5865 69.1188 57.9637 69.1188 57.1955ZM33 75C33 74.2318 33.6317 73.609 34.4109 73.609H88.5891C89.3683 73.609 90 74.2318 90 75C90 75.7682 89.3683 76.391 88.5891 76.391H34.4109C33.6317 76.391 33 75.7682 33 75ZM33 92.8045C33 92.0363 33.6317 91.4135 34.4109 91.4135H88.5891C89.3683 91.4135 90 92.0363 90 92.8045C90 93.5727 89.3683 94.1955 88.5891 94.1955H34.4109C33.6317 94.1955 33 93.5727 33 92.8045ZM33 110.609C33 109.841 33.6317 109.218 34.4109 109.218H88.5891C89.3683 109.218 90 109.841 90 110.609C90 111.377 89.3683 112 88.5891 112H34.4109C33.6317 112 33 111.377 33 110.609Z" fill="black"/>
<path d="M52.5 60H34.5C33.5717 60 32.6815 59.6313 32.0251 58.9749C31.3687 58.3185 31 57.4283 31 56.5V38.5C31 37.5717 31.3687 36.6815 32.0251 36.0251C32.6815 35.3687 33.5717 35 34.5 35H52.5C53.4283 35 54.3185 35.3687 54.9749 36.0251C55.6313 36.6815 56 37.5717 56 38.5V56.5C56 57.4283 55.6313 58.3185 54.9749 58.9749C54.3185 59.6313 53.4283 60 52.5 60Z" stroke="black" stroke-width="2"/>
</svg>
