<svg width="150" height="150" viewBox="0 0 150 150" fill="none" xmlns="http://www.w3.org/2000/svg">
<path fill-rule="evenodd" clip-rule="evenodd" d="M127.254 44.4783C128.093 44.1029 129.011 43.9444 129.926 44.0173C130.841 44.0901 131.723 44.392 132.493 44.8955C133.263 45.399 133.895 46.0882 134.333 46.9003C134.771 47.7125 135 48.6219 135 49.546V100.454C135 101.378 134.771 102.288 134.333 103.1C133.895 103.912 133.263 104.601 132.493 105.104C131.723 105.608 130.841 105.91 129.926 105.983C129.011 106.056 128.093 105.897 127.254 105.522C127.176 105.487 127.102 105.444 127.032 105.395L105.338 90.019C104.616 89.5072 104.026 88.8282 103.619 88.0391C103.213 87.2501 103 86.3741 103 85.4851V64.515C103 63.6259 103.213 62.7499 103.619 61.9609C104.026 61.1718 104.616 60.4928 105.338 59.981L127.032 44.6051C127.102 44.5557 127.176 44.5132 127.254 44.4783ZM106.847 87.8594C106.847 87.8594 106.847 87.8594 106.847 87.8594L128.427 103.154C128.837 103.318 129.279 103.385 129.719 103.35C130.199 103.312 130.661 103.154 131.064 102.89C131.467 102.626 131.798 102.265 132.028 101.84C132.257 101.414 132.377 100.938 132.377 100.454V49.5461C132.377 49.062 132.257 48.5856 132.028 48.1602C131.798 47.7348 131.467 47.3738 131.064 47.1101C130.661 46.8464 130.199 46.6882 129.719 46.65C129.279 46.615 128.837 46.6823 128.427 46.8461L106.847 62.1406C106.847 62.1406 106.847 62.1406 106.847 62.1406C106.469 62.4087 106.161 62.7644 105.947 63.1777C105.734 63.5909 105.623 64.0496 105.623 64.5152M106.847 87.8594C106.469 87.5913 106.161 87.2356 105.947 86.8223C105.734 86.4091 105.623 85.9504 105.623 85.4848C105.623 85.4847 105.623 85.4846 105.623 85.4845V64.5155" fill="black"/>
<path fill-rule="evenodd" clip-rule="evenodd" d="M29.9176 40H78.2082L78.2102 40C82.129 40.0122 85.8838 41.5827 88.6548 44.3687C91.4258 47.1546 92.9879 50.9297 93 54.8696L93 54.8717V95.0019L93 95.0038C92.9886 98.9775 91.4135 102.785 88.6187 105.595C85.824 108.405 82.0367 109.989 78.0843 110L78.0824 110H29.9176L29.9157 110C25.9633 109.989 22.176 108.405 19.3813 105.595C16.5865 102.785 15.0114 98.9775 15 95.0038L15 95.0019V54.9981L15 54.9962C15.0114 51.0225 16.5865 47.2148 19.3813 44.4049C22.176 41.595 25.9633 40.0114 29.9157 40L29.9176 40ZM78.2041 42.6316H29.9214C26.6612 42.6415 23.5374 43.9479 21.2321 46.2657C18.9267 48.5835 17.6273 51.7242 17.6174 55.0019V94.9981C17.6273 98.2758 18.9267 101.417 21.2321 103.734C23.5375 106.052 26.6615 107.359 29.9219 107.368C29.9223 107.368 29.9228 107.368 29.9232 107.368H78.0768C78.0772 107.368 78.0777 107.368 78.0781 107.368C81.3385 107.359 84.4625 106.052 86.7679 103.734C89.0731 101.417 90.3725 98.2764 90.3826 94.9989C90.3826 94.998 90.3826 94.9971 90.3826 94.9962V54.8778C90.3826 54.8769 90.3826 54.8761 90.3826 54.8752C90.3719 51.6313 89.0855 48.5233 86.804 46.2295C84.5223 43.9355 81.4308 42.6421 78.2041 42.6316Z" fill="black"/>
</svg>
